<svg xmlns="http://www.w3.org/2000/svg" xmlns:xlink="http://www.w3.org/1999/xlink" width="500" zoomAndPan="magnify" viewBox="0 0 375 374.999991" height="500" preserveAspectRatio="xMidYMid meet" version="1.0"><defs><clipPath id="c650800d44"><path d="M 15.625 37 L 342 37 L 342 361 L 15.625 361 Z M 15.625 37 " clip-rule="nonzero"/></clipPath><clipPath id="e3912230a1"><path d="M 60 89 L 344.875 89 L 344.875 363 L 60 363 Z M 60 89 " clip-rule="nonzero"/></clipPath></defs><path fill="#8b865c" d="M 273.566406 54.957031 C 273.566406 54.617188 273.226562 54.363281 272.886719 53.9375 C 271.363281 52.242188 269.410156 50.800781 267.714844 49.1875 C 266.441406 47.917969 265.085938 46.644531 263.898438 45.371094 C 262.710938 44.183594 261.4375 43.082031 260.421875 41.726562 C 259.320312 40.199219 258.214844 38.671875 256.859375 37.316406 C 254.484375 34.855469 251.769531 33.414062 248.71875 31.886719 C 245.238281 30.105469 236.757812 25.78125 236.757812 25.78125 C 236.929688 25.867188 236.503906 28.75 236.421875 29.003906 C 236.164062 30.023438 235.828125 30.957031 235.488281 31.886719 C 234.722656 33.839844 233.789062 35.535156 232.773438 37.316406 C 231.839844 39.011719 230.398438 40.285156 229.382812 41.980469 C 229.382812 41.980469 230.230469 45.457031 230.484375 46.898438 C 230.738281 48.511719 230.992188 50.121094 230.992188 51.734375 C 231.078125 53.429688 230.738281 55.042969 230.566406 56.652344 C 230.484375 58.007812 230.652344 59.621094 230.992188 60.894531 C 232.09375 65.640625 237.015625 69.289062 241.933594 68.863281 C 243.714844 71.070312 245.496094 73.53125 248.292969 73.953125 C 249.988281 74.207031 251.6875 73.699219 253.128906 72.851562 C 254.570312 72.003906 255.839844 70.816406 257.027344 69.628906 C 260.84375 65.898438 268.988281 63.183594 270.9375 58.179688 C 271.277344 57.246094 272.125 56.566406 272.804688 55.890625 C 273.398438 55.464844 273.566406 55.210938 273.566406 54.957031 Z M 273.566406 54.957031 " fill-opacity="1" fill-rule="nonzero"/><path fill="#f7f2e8" d="M 33.132812 67.675781 L 329.457031 67.675781 L 329.457031 273.761719 L 33.132812 273.761719 Z M 286.035156 276.476562 C 286.035156 297.085938 295.957031 314.300781 308.933594 317.78125 C 309.269531 317.863281 309.441406 318.117188 309.441406 318.457031 C 309.441406 318.796875 309.1875 319.050781 308.933594 319.136719 C 295.871094 322.699219 286.035156 339.828125 286.035156 360.4375 C 286.035156 360.609375 286.035156 360.863281 286.035156 361.03125 L 341.835938 361.03125 C 341.835938 360.863281 341.835938 360.609375 341.835938 360.4375 C 341.835938 339.828125 331.914062 322.613281 318.9375 319.136719 C 318.601562 319.050781 318.429688 318.796875 318.429688 318.457031 C 318.429688 318.117188 318.683594 317.863281 318.9375 317.78125 C 332 314.21875 341.835938 297.085938 341.835938 276.476562 C 341.835938 276.308594 341.835938 276.054688 341.835938 275.882812 L 286.035156 275.882812 C 286.035156 276.054688 286.035156 276.222656 286.035156 276.476562 Z M 286.035156 276.476562 " fill-opacity="1" fill-rule="nonzero"/><path fill="#f6ad9a" d="M 122.605469 89.472656 L 169.167969 89.472656 L 169.167969 100.246094 L 122.605469 100.246094 Z M 51.875 111.695312 L 98.4375 111.695312 L 98.4375 145.191406 L 51.875 145.191406 Z M 122.605469 111.695312 L 169.167969 111.695312 L 169.167969 145.191406 L 122.605469 145.191406 Z M 122.605469 201.589844 L 169.167969 201.589844 L 169.167969 235.089844 L 122.605469 235.089844 Z M 193.421875 111.695312 L 239.980469 111.695312 L 239.980469 145.191406 L 193.421875 145.191406 Z M 193.421875 156.640625 L 239.980469 156.640625 L 239.980469 190.140625 L 193.421875 190.140625 Z M 264.238281 201.589844 L 310.796875 201.589844 L 310.796875 235.089844 L 264.238281 235.089844 Z M 343.195312 253.324219 C 342.769531 247.558594 338.53125 239.671875 338.277344 233.820312 C 338.277344 233.394531 332.085938 232.375 331.492188 232.207031 C 329.203125 231.78125 326.828125 231.359375 324.453125 231.019531 C 319.789062 230.425781 315.121094 230.171875 310.457031 230.339844 C 305.792969 230.511719 301.042969 231.019531 296.464844 232.039062 C 295.363281 232.292969 294.175781 232.546875 293.074219 232.800781 C 292.308594 232.96875 290.105469 233.140625 289.679688 233.734375 C 289.339844 234.15625 289.679688 235.683594 289.59375 236.277344 C 289 241.789062 282.980469 242.300781 278.570312 242.722656 C 274.246094 243.148438 270.003906 243.570312 265.765625 244.675781 C 261.183594 245.777344 256.6875 247.472656 252.871094 250.1875 C 247.277344 254.257812 244.730469 260.023438 243.96875 266.300781 C 243.035156 267.316406 242.101562 268.335938 241.339844 269.4375 C 239.304688 272.238281 237.777344 275.375 236.335938 278.511719 C 234.046875 283.347656 232.011719 288.265625 230.230469 293.355469 C 227.261719 302.34375 222.257812 316.675781 219.203125 325.582031 C 226.582031 329.144531 237.269531 330.246094 246.003906 328.71875 C 247.445312 323.292969 248.207031 318.628906 250.921875 314.472656 C 252.28125 312.4375 253.804688 309.554688 255.078125 306.585938 C 258.46875 314.472656 261.863281 322.359375 265.425781 330.160156 C 269.582031 329.738281 273.652344 328.636719 277.550781 327.191406 C 281.285156 325.835938 285.609375 324.226562 288.746094 321.765625 C 287.222656 318.035156 285.609375 314.558594 284.589844 310.570312 C 283.488281 306.5 282.726562 302.257812 282.046875 298.105469 C 281.199219 292.929688 281.707031 288.351562 281.113281 283.175781 C 281.03125 282.246094 280.265625 273.425781 279.078125 273.339844 C 279.164062 273.339844 295.109375 273.59375 299.007812 273.507812 C 306.894531 273.425781 315.886719 273.507812 323.773438 273.507812 C 329.203125 273.507812 334.289062 273.253906 337.34375 270.539062 C 342.601562 266.46875 343.617188 259.175781 343.195312 253.324219 Z M 292.734375 39.011719 L 304.265625 52.582031 C 305.371094 53.9375 305.199219 55.890625 303.929688 57.078125 L 286.457031 71.917969 L 270.851562 53.515625 L 288.324219 38.671875 C 289.59375 37.570312 291.546875 37.738281 292.734375 39.011719 Z M 292.734375 39.011719 " fill-opacity="1" fill-rule="nonzero"/><path fill="#8b865c" d="M 280.097656 45.542969 L 295.785156 63.945312 L 277.042969 79.890625 L 261.4375 61.488281 Z M 280.097656 45.542969 " fill-opacity="1" fill-rule="nonzero"/><path fill="#dd7a5e" d="M 215.640625 132.046875 C 215.132812 132.386719 214.539062 132.726562 213.945312 132.8125 L 190.03125 138.832031 C 189.4375 138.917969 189.011719 138.410156 189.179688 137.816406 L 199.019531 115.171875 C 199.273438 114.578125 199.613281 114.066406 200.121094 113.558594 L 200.714844 117.628906 C 200.800781 117.96875 201.054688 118.308594 201.394531 118.476562 L 204.703125 119.496094 C 205.039062 119.582031 205.378906 119.921875 205.378906 120.34375 L 205.890625 123.738281 C 205.972656 124.074219 206.226562 124.414062 206.566406 124.585938 L 209.875 125.601562 C 210.214844 125.6875 210.554688 126.027344 210.554688 126.449219 L 211.0625 129.925781 C 211.148438 130.265625 211.402344 130.605469 211.742188 130.777344 Z M 194.523438 20.863281 C 194.269531 11.957031 202.496094 3.308594 211.402344 3.648438 C 215.980469 3.816406 220.390625 6.019531 223.359375 9.582031 C 226.074219 12.804688 227.515625 16.792969 228.871094 20.777344 C 231.246094 22.730469 234.046875 24.171875 236.675781 25.78125 C 237.183594 28.917969 236.503906 32.144531 235.148438 35.027344 C 234.300781 36.722656 233.367188 38.332031 232.179688 39.777344 C 231.585938 40.539062 230.992188 41.21875 230.230469 41.894531 C 229.296875 42.742188 229.296875 41.894531 228.957031 41.046875 C 228.789062 40.625 228.53125 40.199219 228.277344 39.777344 C 227.769531 38.925781 227.175781 38.078125 226.414062 37.402344 C 226.074219 37.144531 225.480469 36.550781 225.054688 36.550781 C 224.546875 36.550781 224.121094 37.230469 223.785156 37.570312 C 222.851562 38.503906 221.832031 39.4375 220.816406 40.367188 C 220.5625 40.625 220.304688 40.792969 220.050781 40.960938 C 219.710938 41.132812 219.375 41.300781 218.949219 41.300781 C 218.1875 41.472656 217.421875 41.386719 216.660156 41.21875 C 216.234375 41.132812 215.726562 40.878906 215.300781 40.707031 C 213.691406 39.945312 212.078125 39.183594 210.554688 38.164062 C 210.214844 37.910156 209.789062 37.570312 209.367188 37.402344 C 208.941406 37.230469 208.941406 37.402344 208.519531 37.738281 C 207.925781 38.25 207.246094 38.589844 206.484375 38.503906 C 205.550781 38.417969 204.871094 37.65625 204.445312 36.808594 C 204.023438 35.960938 203.851562 35.027344 203.515625 34.179688 C 202.835938 32.652344 201.648438 31.550781 200.375 30.53125 C 199.1875 29.511719 197.746094 28.835938 196.644531 27.648438 C 195.628906 26.546875 194.949219 25.1875 194.609375 23.746094 C 194.695312 22.8125 194.609375 21.878906 194.523438 20.863281 Z M 23.210938 237.296875 C 23.886719 233.902344 24.3125 229.152344 24.566406 225.675781 C 24.738281 223.980469 24.738281 222.625 26.519531 222.03125 C 27.28125 221.777344 29.0625 222.371094 29.65625 223.132812 C 30.417969 223.980469 29.910156 226.355469 29.910156 227.457031 C 29.824219 230.679688 29.742188 233.902344 29.484375 237.125 C 29.402344 238.738281 29.230469 240.347656 29.148438 241.875 C 29.0625 242.808594 28.890625 243.742188 28.722656 244.675781 C 28.636719 245.097656 28.808594 245.691406 28.296875 245.863281 C 27.960938 245.945312 27.535156 245.691406 27.28125 245.523438 C 25.753906 244.675781 24.738281 242.894531 23.71875 241.453125 C 23.378906 240.941406 23.039062 240.347656 22.871094 239.671875 C 22.871094 238.90625 23.039062 238.144531 23.210938 237.296875 Z M 23.210938 237.296875 " fill-opacity="1" fill-rule="nonzero"/><path fill="#f7b168" d="M 51.875 89.472656 L 98.4375 89.472656 L 98.4375 100.246094 L 51.875 100.246094 Z M 51.875 201.589844 L 98.4375 201.589844 L 98.4375 235.089844 L 51.875 235.089844 Z M 336.75 291.574219 L 291.375 291.574219 C 290.953125 290.046875 296.039062 314.046875 314.105469 314.046875 C 332.167969 314.046875 337.257812 289.960938 336.75 291.574219 Z M 336.75 345.34375 L 291.375 345.34375 C 290.105469 349.496094 289.339844 354.078125 289.171875 358.910156 L 338.871094 358.910156 C 338.785156 354.078125 338.019531 349.496094 336.75 345.34375 Z M 303.589844 207.867188 C 306.726562 212.957031 307.746094 219.230469 306.304688 225 C 300.707031 224.40625 295.617188 221.777344 291.121094 218.382812 C 289.511719 217.195312 287.898438 215.921875 286.371094 214.738281 C 283.148438 212.191406 280.011719 209.5625 276.875 206.933594 C 274.667969 205.066406 273.480469 203.710938 271.363281 201.761719 C 270.851562 201.25 270.257812 200.742188 269.582031 200.320312 C 268.816406 199.808594 268.648438 199.808594 267.714844 200.066406 C 266.101562 200.574219 264.492188 200.996094 262.796875 201.25 C 260.589844 201.589844 258.386719 201.589844 256.179688 201.082031 C 255.246094 200.828125 254.398438 200.320312 253.636719 199.808594 C 251.855469 198.707031 250.074219 197.605469 248.292969 196.503906 C 246.089844 195.144531 248.800781 194.128906 250.242188 194.296875 C 252.023438 194.46875 253.636719 195.484375 255.417969 195.824219 C 257.113281 196.164062 259.65625 196.757812 261.355469 196.078125 C 262.03125 195.824219 267.460938 193.957031 265.59375 192.941406 C 264.832031 192.515625 263.898438 192.433594 263.136719 192.175781 C 262.285156 191.921875 260.082031 191.5 259.574219 190.652344 C 259.0625 189.71875 259.742188 188.953125 260.675781 188.953125 C 261.523438 188.953125 262.457031 188.953125 263.304688 188.871094 C 265.085938 188.871094 266.867188 188.871094 268.648438 188.871094 C 269.242188 188.871094 269.835938 188.871094 270.34375 189.039062 C 270.769531 189.207031 271.191406 189.464844 271.53125 189.800781 C 273.480469 191.328125 275.347656 192.941406 277.042969 194.636719 C 279.25 197.011719 292.394531 202.523438 303.589844 207.867188 Z M 200.628906 113.136719 L 272.292969 52.242188 L 287.898438 70.644531 L 216.234375 131.539062 L 215.640625 132.046875 L 211.742188 130.777344 C 211.402344 130.691406 211.0625 130.351562 211.0625 129.925781 L 210.554688 126.449219 C 210.46875 126.109375 210.214844 125.773438 209.875 125.601562 L 206.566406 124.585938 C 206.226562 124.5 205.890625 124.160156 205.890625 123.738281 L 205.378906 120.34375 C 205.296875 120.003906 205.039062 119.664062 204.703125 119.496094 L 201.394531 118.476562 C 201.054688 118.394531 200.714844 118.054688 200.714844 117.628906 L 200.121094 113.558594 Z M 193.421875 201.589844 L 193.421875 235.089844 L 239.980469 235.089844 L 239.980469 201.589844 Z M 212.503906 229.152344 L 202.667969 219.316406 L 206.144531 215.839844 L 212.503906 222.199219 L 227.34375 207.359375 L 230.824219 210.835938 Z M 266.441406 43.847656 C 266.273438 44.777344 265.679688 45.371094 265 46.050781 C 264.324219 46.730469 263.558594 47.238281 262.796875 47.746094 C 259.828125 49.699219 256.945312 51.480469 253.464844 52.15625 C 253.382812 49.019531 253.382812 45.882812 253.722656 42.742188 C 251.601562 42.574219 249.394531 42.234375 247.445312 41.300781 C 245.324219 40.285156 243.96875 38.332031 243.796875 35.960938 C 241.761719 35.703125 239.558594 35.027344 238.285156 33.414062 C 237.183594 32.144531 236.675781 30.277344 237.097656 28.664062 C 235.402344 28.664062 233.707031 27.988281 232.519531 26.800781 C 231.925781 26.207031 231.417969 25.441406 231.160156 24.679688 C 230.992188 24.253906 230.90625 23.832031 230.824219 23.40625 C 230.738281 23.152344 230.652344 22.136719 230.652344 22.136719 C 230.652344 22.136719 229.71875 22.136719 229.382812 22.136719 C 228.703125 22.21875 228.023438 22.136719 227.34375 22.136719 C 225.988281 22.136719 224.714844 22.050781 223.359375 21.796875 C 221.917969 21.542969 219.375 21.117188 218.949219 19.421875 C 218.78125 18.488281 218.355469 17.640625 217.675781 17.046875 C 216.828125 16.285156 215.640625 15.945312 214.539062 16.199219 C 213.4375 16.453125 212.503906 17.386719 212.25 18.574219 C 211.996094 19.761719 212.589844 21.117188 213.523438 21.710938 C 212.757812 22.304688 211.824219 22.730469 210.894531 22.984375 C 209.113281 23.578125 207.332031 23.917969 205.464844 24 C 203.683594 24.085938 201.902344 24.085938 200.121094 23.746094 C 198.171875 23.40625 196.050781 22.558594 194.523438 21.203125 C 194.101562 17.980469 194.523438 14.839844 195.964844 11.957031 C 198 7.972656 201.394531 4.664062 205.464844 2.796875 C 211.65625 0 219.035156 1.101562 224.292969 5.429688 C 225.988281 6.871094 227.515625 9.074219 227.429688 11.449219 C 229.804688 9.921875 232.941406 9.835938 235.570312 10.941406 C 238.117188 12.128906 240.066406 14.585938 240.574219 17.386719 C 242.78125 17.554688 244.730469 18.828125 246.089844 20.609375 C 247.445312 22.390625 247.953125 24.765625 247.445312 26.882812 C 250.414062 26.882812 253.464844 28.242188 255.332031 30.53125 C 256.945312 32.398438 257.792969 34.941406 257.707031 37.402344 C 258.046875 37.484375 258.300781 37.484375 258.554688 37.65625 C 259.488281 37.996094 260.25 38.671875 261.015625 39.351562 C 262.878906 40.878906 264.660156 42.40625 266.441406 43.847656 Z M 80.542969 138.492188 C 86.730469 141.375 91.992188 149.09375 97.585938 154.183594 C 98.773438 150.535156 100.132812 146.890625 101.320312 143.242188 L 115.992188 143.582031 C 113.617188 152.742188 110.648438 161.730469 107.171875 170.550781 C 106.40625 172.417969 105.558594 174.367188 103.695312 175.128906 C 102.167969 175.808594 100.300781 175.386719 98.691406 174.875 C 93.433594 173.265625 88.683594 171.058594 84.019531 168.007812 C 84.019531 174.367188 83.847656 180.644531 83.339844 186.917969 C 83 191.246094 82.660156 195.992188 79.097656 198.453125 L 42.039062 198.539062 L 42.460938 226.695312 L 20.15625 226.695312 C 22.363281 208.289062 23.886719 189.800781 24.820312 171.3125 C 25.246094 162.324219 25.753906 152.910156 30.25 145.109375 C 41.527344 145.449219 52.808594 145.363281 63.496094 141.96875 C 66.292969 141.039062 69.007812 139.933594 71.804688 139.171875 C 74.605469 138.324219 77.828125 137.304688 80.542969 138.492188 Z M 54.589844 345.9375 C 57.558594 347.207031 60.867188 347.71875 63.75 349.160156 C 66.71875 350.601562 69.941406 357.128906 69.941406 357.128906 L 47.125 357.128906 C 47.125 357.128906 43.140625 357.214844 41.445312 355.945312 C 40.765625 355.351562 40.171875 354.585938 39.492188 353.992188 C 38.898438 353.484375 38.136719 353.058594 37.375 353.230469 C 36.863281 353.316406 36.863281 353.738281 36.78125 354.164062 C 36.695312 354.5 36.523438 356.199219 36.441406 356.621094 C 36.355469 357.214844 35.847656 357.132812 35.847656 357.132812 L 29.316406 357.132812 C 29.316406 357.132812 28.128906 344.238281 28.214844 338.472656 C 28.214844 339.40625 43.308594 339.066406 44.75 338.980469 C 48.144531 338.726562 47.378906 339.152344 49.160156 341.78125 C 50.519531 343.730469 52.554688 345.089844 54.589844 345.9375 Z M 115.226562 345.9375 C 118.195312 347.207031 121.503906 347.71875 124.386719 349.160156 C 127.269531 350.601562 130.578125 357.128906 130.578125 357.128906 L 107.765625 357.128906 C 107.765625 357.128906 103.777344 357.214844 102.082031 355.945312 C 101.402344 355.351562 100.808594 354.585938 100.132812 353.992188 C 99.539062 353.484375 98.773438 353.058594 98.011719 353.230469 C 97.503906 353.316406 97.503906 353.738281 97.417969 354.164062 C 97.332031 354.5 97.164062 356.199219 97.078125 356.621094 C 96.992188 357.214844 96.484375 357.132812 96.484375 357.132812 L 89.953125 357.132812 C 89.953125 357.132812 88.765625 344.238281 88.851562 338.472656 C 88.851562 339.40625 103.949219 339.066406 105.390625 338.980469 C 108.78125 338.726562 108.019531 339.152344 109.800781 341.78125 C 111.074219 343.730469 113.191406 345.089844 115.226562 345.9375 Z M 296.464844 150.875 C 296.125 150.621094 295.957031 150.28125 296.125 149.859375 C 296.464844 148.671875 297.398438 147.652344 298.246094 146.71875 C 299.09375 145.703125 299.6875 145.023438 299.773438 143.75 C 299.855469 142.820312 299.941406 141.886719 300.113281 140.867188 C 300.195312 139.765625 300.367188 138.578125 300.621094 137.476562 C 300.789062 136.796875 301.128906 136.203125 301.46875 135.609375 C 301.722656 135.269531 301.976562 134.847656 302.230469 134.507812 C 304.265625 131.960938 307.488281 130.097656 310.375 128.996094 C 311.136719 128.738281 311.898438 128.484375 312.664062 128.230469 C 318.683594 126.621094 326.316406 128.144531 329.371094 134.167969 C 330.980469 137.304688 330.898438 141.121094 329.878906 144.515625 C 328.863281 147.90625 327.335938 151.128906 325.554688 154.183594 C 325.976562 158 326.742188 161.390625 327.757812 164.953125 C 327.675781 164.953125 327.675781 165.039062 327.589844 165.039062 C 327.335938 165.292969 326.996094 165.546875 326.742188 165.71875 C 325.640625 166.648438 324.453125 167.496094 323.179688 168.261719 C 320.71875 169.789062 318.175781 171.144531 315.460938 172.164062 C 314.105469 172.671875 312.75 173.09375 311.304688 173.519531 C 310.628906 173.6875 307.152344 174.027344 306.980469 174.199219 C 307.234375 173.773438 307.488281 173.351562 307.746094 173.09375 C 308.339844 172.332031 308.847656 171.484375 309.269531 170.550781 C 310.882812 167.160156 311.222656 163.085938 309.78125 159.695312 C 308.082031 160.121094 306.386719 160.289062 304.691406 160.121094 C 303.589844 160.035156 302.402344 159.78125 301.554688 159.015625 C 300.535156 158.253906 300.113281 156.980469 299.855469 155.710938 C 299.601562 154.4375 299.6875 153.164062 299.433594 151.894531 C 298.839844 151.722656 298.246094 151.554688 297.652344 151.382812 C 297.226562 151.300781 296.804688 151.214844 296.464844 150.875 Z M 277.808594 327.449219 C 275.515625 328.296875 273.226562 328.972656 270.851562 329.484375 L 275.433594 339.066406 C 274.839844 344.664062 271.871094 349.074219 267.800781 352.890625 C 277.636719 351.363281 286.964844 347.460938 294.089844 340.507812 C 290.953125 335.25 288.324219 329.566406 286.117188 323.800781 C 283.488281 325.328125 280.4375 326.429688 277.808594 327.449219 Z M 222.851562 327.191406 C 221.238281 332.621094 219.542969 337.964844 217.933594 343.390625 C 216.574219 347.886719 210.46875 349.414062 206.398438 351.703125 C 213.945312 355.433594 223.019531 356.28125 230.90625 353.398438 C 233.875 345.511719 236.84375 337.539062 239.726562 329.566406 C 233.960938 329.652344 227.9375 328.890625 222.851562 327.191406 Z M 222.851562 327.191406 " fill-opacity="1" fill-rule="nonzero"/><g clip-path="url(#c650800d44)"><path fill="#8b865c" d="M 189.945312 138.832031 L 195.796875 137.390625 L 191.472656 132.300781 L 189.097656 137.816406 C 189.011719 138.410156 189.4375 138.917969 189.945312 138.832031 Z M 201.394531 353.3125 C 198.851562 354.839844 196.304688 357.808594 194.863281 360.355469 L 229.296875 360.355469 C 230.058594 360.355469 230.738281 359.84375 230.992188 359.167969 C 232.011719 356.027344 232.6875 351.195312 233.027344 348.394531 C 225.140625 350.941406 216.660156 351.789062 208.347656 350.769531 C 205.890625 351.195312 203.515625 352.042969 201.394531 353.3125 Z M 297.226562 343.984375 C 297.398438 344.410156 297.226562 344.832031 296.972656 345.089844 C 290.019531 352.382812 280.4375 360.4375 270.511719 360.4375 L 257.875 360.4375 C 258.808594 357.554688 261.355469 355.351562 263.898438 353.738281 C 265.085938 352.976562 269.496094 351.363281 270.851562 349.753906 C 278.738281 348.90625 286.882812 343.050781 292.222656 337.199219 L 292.394531 337.199219 C 293.75 338.8125 296.464844 341.78125 297.226562 343.984375 Z M 122.605469 156.640625 L 122.605469 190.140625 L 169.167969 190.140625 L 169.167969 156.640625 Z M 141.6875 184.289062 L 131.851562 174.453125 L 135.328125 170.976562 L 141.6875 177.335938 L 156.53125 162.492188 L 160.007812 165.972656 Z M 79.183594 198.539062 C 82.238281 202.101562 83.679688 205.324219 85.121094 210.15625 C 86.902344 216.09375 88.003906 221.945312 89.359375 227.964844 C 98.4375 266.128906 105.21875 305.652344 123.03125 340.59375 L 80.542969 340.59375 C 73.078125 310.910156 65.699219 267.148438 59.253906 238.398438 C 59 237.296875 58.574219 236.191406 57.472656 235.9375 L 56.625 267.828125 C 56.03125 291.742188 56.878906 316.929688 60.78125 340.507812 L 15.917969 340.507812 C 19.5625 331.773438 21.597656 322.445312 23.210938 313.113281 C 24.90625 303.191406 26.007812 293.183594 26.601562 283.175781 C 27.28125 272.320312 27.28125 261.464844 27.789062 250.609375 C 28.296875 239.671875 29.316406 228.730469 31.777344 218.042969 C 33.386719 211.089844 35.59375 203.625 41.105469 198.621094 Z M 299.261719 145.191406 L 264.152344 145.191406 L 264.152344 111.695312 L 310.710938 111.695312 L 310.710938 127.296875 C 308.59375 128.0625 306.640625 129.25 304.945312 130.777344 C 304.011719 131.625 302.824219 132.554688 302.488281 133.914062 C 302.488281 134 302.488281 134 302.488281 134.082031 C 302.402344 134.253906 302.230469 134.335938 302.148438 134.507812 C 301.894531 134.847656 301.636719 135.1875 301.382812 135.609375 C 301.042969 136.203125 300.707031 136.796875 300.535156 137.476562 C 300.195312 138.578125 300.113281 139.679688 300.027344 140.867188 C 299.941406 141.800781 299.855469 142.734375 299.6875 143.75 C 299.6875 144.261719 299.519531 144.769531 299.261719 145.191406 Z M 80.542969 138.492188 C 76.132812 140.273438 73.5 144.769531 69.855469 147.992188 C 63.238281 153.84375 53.488281 154.777344 45.175781 152.996094 C 40.679688 152.0625 35.167969 150.195312 31.859375 146.890625 C 31.605469 146.636719 29.996094 144.9375 30.164062 144.683594 C 32.371094 140.953125 35.167969 137.644531 37.628906 134.082031 C 40.085938 130.519531 43.226562 127.042969 42.800781 122.71875 C 42.546875 120.257812 42.378906 117.800781 42.378906 115.425781 C 42.292969 112.878906 42.039062 110.421875 42.546875 107.960938 C 42.96875 105.925781 43.734375 104.0625 44.921875 102.363281 C 46.023438 100.753906 47.210938 99.226562 48.824219 98.125 C 50.859375 96.683594 53.234375 96.089844 55.691406 95.917969 C 59.507812 95.664062 63.75 96.34375 66.886719 98.207031 C 71.042969 100.667969 72.316406 103.296875 72.316406 103.296875 C 72.230469 103.210938 72.058594 103.128906 71.976562 103.042969 C 66.546875 99.820312 61.796875 108.132812 60.609375 112.289062 C 59.59375 115.679688 60.527344 120.34375 62.644531 123.226562 C 64.171875 125.347656 66.378906 127.128906 68.835938 127.976562 C 69.007812 127.722656 69.261719 127.382812 69.429688 127.128906 C 69.429688 127.296875 69.429688 127.554688 69.429688 127.722656 C 69.347656 129.332031 70.449219 130.691406 71.550781 131.878906 C 74.09375 134.59375 77.148438 136.882812 80.542969 138.492188 Z M 215.726562 100.246094 L 193.421875 100.246094 L 193.421875 89.472656 L 228.363281 89.472656 Z M 341.582031 235.261719 C 341.582031 235.261719 286.964844 235.089844 286.289062 235.175781 C 286.117188 228.984375 287.136719 222.792969 289.085938 216.855469 C 289.765625 217.367188 290.359375 217.875 291.035156 218.382812 C 295.53125 221.777344 300.621094 224.488281 306.21875 225 C 307.660156 219.230469 306.640625 212.871094 303.503906 207.867188 C 300.707031 206.511719 297.738281 205.152344 294.9375 203.796875 C 295.445312 202.949219 295.957031 202.015625 296.550781 201.167969 C 294.261719 198.539062 293.835938 194.636719 294.769531 191.328125 C 295.703125 188.023438 297.90625 185.136719 300.195312 182.507812 C 302.484375 179.878906 304.945312 177.167969 306.894531 174.28125 C 306.980469 174.199219 310.457031 173.773438 311.222656 173.605469 C 312.664062 173.179688 314.019531 172.757812 315.378906 172.246094 C 318.089844 171.230469 320.71875 169.957031 323.09375 168.347656 C 324.367188 167.582031 325.554688 166.734375 326.65625 165.800781 C 326.910156 165.546875 327.25 165.378906 327.503906 165.125 C 327.675781 165.039062 327.757812 164.953125 327.84375 164.867188 C 327.929688 164.867188 328.097656 164.867188 328.269531 164.953125 C 328.863281 165.207031 329.457031 165.632812 329.878906 166.140625 C 330.386719 166.734375 330.726562 167.414062 331.066406 168.089844 C 331.492188 168.855469 331.832031 169.535156 332.253906 170.296875 C 333.015625 171.738281 333.78125 173.265625 334.460938 174.792969 C 335.222656 176.402344 335.902344 178.097656 336.578125 179.878906 C 338.445312 184.96875 339.464844 190.394531 338.953125 195.738281 C 338.445312 200.234375 336.917969 204.558594 336.242188 209.054688 C 335.054688 217.789062 337.683594 227.203125 341.582031 235.261719 Z M 264.578125 72.9375 C 265.339844 74.972656 265.847656 76.753906 265.253906 78.957031 C 265 80.058594 264.578125 81.078125 264.066406 82.011719 C 263.050781 83.875 261.777344 85.574219 260.503906 87.183594 C 258.726562 89.472656 256.945312 91.679688 255.164062 93.96875 C 251.09375 98.972656 247.019531 103.890625 242.867188 108.808594 C 242.867188 108.808594 238.792969 104.992188 237.777344 103.976562 C 236.589844 102.875 236.421875 102.789062 235.402344 101.769531 C 235.402344 101.769531 241 90.238281 241.425781 89.472656 C 243.035156 86.503906 250.414062 74.546875 250.414062 74.546875 C 250.414062 74.378906 246.683594 67.253906 245.664062 65.046875 C 243.714844 60.976562 241.761719 56.820312 240.320312 52.496094 C 239.644531 50.375 239.050781 48.171875 238.625 45.964844 C 238.285156 44.015625 238.03125 42.148438 239.132812 40.367188 C 240.238281 38.589844 242.273438 37.65625 244.308594 37.484375 C 244.816406 39.183594 246.003906 40.453125 247.613281 41.300781 C 249.3125 42.148438 251.175781 42.40625 253.042969 42.660156 C 253.296875 43.082031 253.550781 43.507812 253.804688 43.929688 C 253.550781 46.644531 253.550781 49.359375 253.636719 52.15625 C 254.738281 51.902344 255.757812 51.5625 256.773438 51.140625 C 258.46875 55.890625 260.167969 60.636719 261.949219 65.386719 C 262.710938 67.933594 263.644531 70.390625 264.578125 72.9375 Z M 264.578125 72.9375 " fill-opacity="1" fill-rule="nonzero"/></g><g clip-path="url(#e3912230a1)"><path fill="#dd7a5e" d="M 242.867188 108.808594 C 242.101562 110.675781 242.1875 113.21875 241.507812 115.085938 C 240.832031 116.953125 239.21875 118.308594 237.523438 119.328125 C 235.828125 120.34375 234.046875 121.191406 232.433594 122.378906 C 231.585938 122.972656 230.824219 123.738281 229.804688 124.160156 C 228.871094 124.585938 227.601562 124.585938 226.835938 123.90625 C 226.074219 123.144531 225.988281 121.957031 226.328125 120.9375 C 226.667969 119.921875 227.429688 119.070312 228.023438 118.222656 C 229.210938 116.695312 229.972656 114.917969 230.566406 113.050781 C 230.738281 112.542969 230.824219 112.117188 230.992188 111.609375 C 231.078125 111.4375 231.417969 110.675781 231.332031 110.507812 C 231.160156 109.996094 230.3125 110.84375 230.058594 110.929688 C 229.042969 111.609375 227.855469 111.949219 226.582031 111.949219 C 225.988281 111.949219 225.226562 111.695312 225.226562 111.101562 C 225.226562 110.929688 225.308594 110.761719 225.394531 110.589844 C 225.988281 109.488281 227.175781 108.894531 228.109375 108.046875 C 229.296875 107.027344 230.058594 105.671875 230.992188 104.484375 C 231.925781 103.296875 233.789062 101.6875 235.316406 101.601562 C 236.421875 102.617188 236.503906 102.617188 237.691406 103.804688 C 238.710938 104.992188 242.78125 108.808594 242.867188 108.808594 C 242.78125 108.808594 242.78125 108.808594 242.867188 108.808594 Z M 283.148438 361.03125 C 283.148438 362.21875 284.082031 363.152344 285.269531 363.152344 L 342.6875 363.152344 C 343.875 363.152344 344.804688 362.21875 344.804688 361.03125 C 344.804688 359.84375 343.875 358.910156 342.6875 358.910156 L 285.269531 358.910156 C 284.082031 358.910156 283.148438 359.84375 283.148438 361.03125 Z M 283.148438 275.800781 C 283.148438 276.984375 284.082031 277.917969 285.269531 277.917969 L 342.6875 277.917969 C 343.875 277.917969 344.804688 276.984375 344.804688 275.800781 C 344.804688 274.613281 343.875 273.679688 342.6875 273.679688 L 285.269531 273.679688 C 284.082031 273.761719 283.148438 274.695312 283.148438 275.800781 Z M 71.976562 103.042969 C 66.546875 99.820312 61.796875 108.132812 60.609375 112.289062 C 59.59375 115.679688 60.527344 120.34375 62.644531 123.226562 C 64.171875 125.347656 66.378906 127.128906 68.835938 127.976562 C 70.023438 126.195312 71.296875 124.5 72.652344 122.886719 C 73.839844 121.363281 75.199219 119.835938 75.367188 117.96875 C 75.453125 116.867188 75.28125 115.765625 75.027344 114.746094 C 74.773438 113.390625 74.6875 112.03125 74.773438 110.589844 C 74.773438 109.234375 74.945312 107.792969 74.519531 106.433594 C 74.179688 104.992188 73.164062 103.722656 71.976562 103.042969 Z M 116.925781 133.742188 C 116.667969 137.136719 115.820312 140.445312 114.464844 143.582031 L 102.761719 143.328125 C 102.761719 143.242188 102.761719 143.242188 102.761719 143.15625 C 103.015625 141.121094 103.355469 138.578125 103.863281 136.542969 C 104.542969 133.742188 105.644531 131.03125 106.664062 128.316406 C 107.59375 125.941406 107.511719 123.144531 108.1875 120.597656 C 108.273438 120.257812 108.441406 120.003906 108.78125 119.75 C 109.121094 119.582031 109.628906 119.582031 109.800781 119.835938 C 109.886719 120.003906 109.96875 120.175781 109.96875 120.34375 C 110.140625 121.957031 110.054688 123.652344 109.886719 125.261719 C 109.800781 125.773438 109.886719 126.28125 109.886719 126.789062 C 110.5625 126.703125 111.328125 126.789062 112.089844 126.960938 C 112.851562 127.128906 113.445312 127.554688 113.703125 128.230469 C 113.871094 128.65625 113.785156 129.164062 114.039062 129.589844 C 114.464844 130.519531 115.820312 130.519531 116.5 131.285156 C 117.007812 131.960938 117.007812 132.894531 116.925781 133.742188 Z M 309.269531 170.636719 C 308.847656 171.570312 308.339844 172.332031 307.746094 173.179688 C 307.488281 173.519531 307.152344 173.941406 306.980469 174.28125 C 305.03125 177.167969 302.570312 179.964844 300.28125 182.507812 C 298.246094 184.800781 296.378906 187.257812 295.277344 190.058594 L 271.871094 190.058594 C 271.785156 189.972656 271.617188 189.886719 271.53125 189.800781 C 271.191406 189.546875 270.769531 189.207031 270.34375 189.039062 C 269.835938 188.871094 269.242188 188.871094 268.648438 188.871094 C 267.207031 188.871094 265.679688 188.871094 264.238281 188.871094 L 264.238281 156.640625 L 300.027344 156.640625 C 300.28125 157.574219 300.789062 158.421875 301.554688 159.015625 C 302.402344 159.695312 303.589844 160.035156 304.691406 160.121094 C 306.386719 160.289062 308.167969 160.121094 309.78125 159.695312 C 311.222656 163.171875 310.882812 167.242188 309.269531 170.636719 Z M 338.445312 192.941406 C 338.953125 192.855469 339.464844 192.601562 339.886719 192.175781 C 342.007812 190.058594 343.195312 186.070312 343.195312 183.1875 C 343.28125 179.285156 342.175781 175.46875 340.90625 171.824219 C 339.632812 168.175781 338.191406 164.53125 337.597656 160.628906 C 336.578125 153.929688 338.105469 146.890625 336.242188 140.359375 C 334.203125 133.40625 328.015625 127.808594 320.804688 126.535156 C 318.007812 126.027344 315.039062 126.109375 312.238281 126.875 C 309.527344 127.636719 306.980469 128.996094 304.859375 130.859375 C 303.929688 131.707031 302.742188 132.640625 302.402344 134 C 302.230469 134.675781 302.402344 135.355469 302.65625 135.949219 C 302.910156 136.710938 303.335938 137.390625 303.757812 137.984375 C 304.4375 139.003906 305.371094 139.933594 306.386719 140.699219 C 308.59375 142.226562 311.050781 143.410156 312.75 145.449219 C 314.699219 147.738281 315.378906 150.789062 315.972656 153.757812 C 316.902344 159.015625 317.582031 164.359375 318.769531 169.617188 C 319.957031 174.875 321.824219 180.050781 325.046875 184.375 C 326.828125 186.75 329.03125 188.871094 331.574219 190.394531 C 333.355469 191.414062 336.242188 193.28125 338.445312 192.941406 Z M 98.4375 174.792969 L 98.4375 190.140625 L 83.171875 190.140625 C 83.253906 189.125 83.339844 188.023438 83.425781 187.003906 C 83.847656 180.726562 84.101562 174.367188 84.101562 168.089844 C 88.597656 170.976562 93.261719 173.09375 98.4375 174.792969 Z M 310.796875 89.472656 L 310.796875 100.246094 L 264.238281 100.246094 L 264.238281 90.746094 L 265.679688 89.472656 Z M 310.796875 89.472656 " fill-opacity="1" fill-rule="nonzero"/></g><path fill="#f7f2e8" d="M 219.628906 19.84375 C 220.644531 19.84375 221.492188 20.695312 221.492188 21.710938 C 221.492188 22.730469 220.644531 23.578125 219.628906 23.578125 C 218.609375 23.578125 217.761719 22.730469 217.761719 21.710938 C 217.761719 20.695312 218.523438 19.84375 219.628906 19.84375 Z M 219.628906 19.84375 " fill-opacity="1" fill-rule="nonzero"/></svg>